<svg width="572" height="574" viewBox="0 0 572 574" fill="none" xmlns="http://www.w3.org/2000/svg">
<ellipse cx="286" cy="287" rx="286" ry="287" fill="url(#paint0_linear_269_283)"/>
<path d="M411.352 343.105C405.459 326.236 391.722 317.687 378.462 309.42C366.922 302.222 356.025 295.421 348.899 283.209C329.256 249.383 318.466 228.972 286.286 228.972C254.105 228.972 243.282 249.39 223.591 283.202C216.459 295.441 205.509 302.256 193.956 309.467C180.695 317.741 166.985 326.269 161.071 343.105C158.77 349.176 157.612 355.623 157.656 362.118C157.656 389.498 179.389 411.778 203.466 411.778C227.543 411.778 259.262 399.593 286.353 399.593C313.443 399.593 344.72 411.778 369.099 411.778C393.477 411.778 414.835 389.498 414.835 362.118C414.854 355.619 413.673 349.172 411.352 343.105Z" fill="white"/>
<path d="M163.014 293.492C183.727 293.492 200.519 271.827 200.519 245.102C200.519 218.377 183.727 196.713 163.014 196.713C142.3 196.713 125.508 218.377 125.508 245.102C125.508 271.827 142.3 293.492 163.014 293.492Z" fill="white"/>
<path d="M238.024 228.972C258.738 228.972 275.529 207.308 275.529 180.583C275.529 153.858 258.738 132.193 238.024 132.193C217.31 132.193 200.519 153.858 200.519 180.583C200.519 207.308 217.31 228.972 238.024 228.972Z" fill="white"/>
<path d="M334.466 228.972C355.18 228.972 371.972 207.308 371.972 180.583C371.972 153.858 355.18 132.193 334.466 132.193C313.753 132.193 296.961 153.858 296.961 180.583C296.961 207.308 313.753 228.972 334.466 228.972Z" fill="white"/>
<path d="M409.477 293.492C430.191 293.492 446.982 271.827 446.982 245.102C446.982 218.377 430.191 196.713 409.477 196.713C388.763 196.713 371.972 218.377 371.972 245.102C371.972 271.827 388.763 293.492 409.477 293.492Z" fill="white"/>
<path d="M161 382H214.219L241.181 324.327L263.757 382L310.594 261L329.144 361.257L385.17 340.159L415 382" stroke="url(#paint1_linear_269_283)" stroke-width="10"/>
<defs>
<linearGradient id="paint0_linear_269_283" x1="-35.3208" y1="287" x2="572.026" y2="334.666" gradientUnits="userSpaceOnUse">
<stop offset="0.078125" stop-color="#F13346"/>
<stop offset="1" stop-color="#FFB169"/>
</linearGradient>
<linearGradient id="paint1_linear_269_283" x1="94.2599" y1="390.43" x2="286.478" y2="381.518" gradientUnits="userSpaceOnUse">
<stop stop-color="#F55550"/>
<stop offset="0.0001" stop-color="#F5544F"/>
<stop offset="1" stop-color="#FC9161"/>
</linearGradient>
</defs>
</svg>
